<svg xmlns="http://www.w3.org/2000/svg" viewBox="0 0 24 24" aria-hidden="true"><path d="M23.25 3.25h-2.425V.825a.75.75 0 0 0-1.5 0V3.25H16.9a.75.75 0 0 0 0 1.5h2.425v2.425a.75.75 0 0 0 1.5 0V4.75h2.425a.75.75 0 0 0 0-1.5zm-3.175 6.876a.75.75 0 0 0-.75.75v8.078a.75.75 0 0 1-.75.75H4.095a.752.752 0 0 1-.75-.75V8.298l6.778 4.518a2.179 2.179 0 0 0 2.425 0l4.53-3.013a.729.729 0 1 0-.808-1.212l-4.53 3.014a.73.73 0 0 1-.808 0l-7.586-5.06V5.5a.75.75 0 0 1 .75-.75h9.094a.75.75 0 0 0 0-1.5H4.096c-1.24 0-2.25 1.01-2.25 2.25v13.455c0 1.24 1.01 2.25 2.25 2.25h14.48c1.24 0 2.25-1.01 2.25-2.25v-8.078a.75.75 0 0 0-.75-.75z"/></svg>